<svg width="437" height="10" viewBox="0 0 437 10" fill="none" xmlns="http://www.w3.org/2000/svg">
<rect y="4" width="345" height="5" rx="2.5" fill="#E6EAEE" fill-opacity="0.7"/>
<rect y="4" width="161" height="5" rx="2.5" fill="#20590C"/>
<path d="M363.464 0.347861L362.243 2.93348L359.512 3.34944C359.022 3.42365 358.826 4.05443 359.181 4.41572L361.157 6.42719L360.69 9.26863C360.606 9.78224 361.123 10.167 361.557 9.92675L364 8.58512L366.443 9.92675C366.877 10.165 367.394 9.78224 367.31 9.26863L366.843 6.42719L368.819 4.41572C369.174 4.05443 368.978 3.42365 368.488 3.34944L365.757 2.93348L364.536 0.347861C364.318 -0.11302 363.684 -0.118878 363.464 0.347861Z" fill="#E59819"/>
<path d="M380.464 0.347861L379.243 2.93348L376.512 3.34944C376.022 3.42365 375.826 4.05443 376.181 4.41572L378.157 6.42719L377.69 9.26863C377.606 9.78224 378.123 10.167 378.557 9.92675L381 8.58512L383.443 9.92675C383.877 10.165 384.394 9.78224 384.31 9.26863L383.843 6.42719L385.819 4.41572C386.174 4.05443 385.978 3.42365 385.488 3.34944L382.757 2.93348L381.536 0.347861C381.318 -0.11302 380.684 -0.118878 380.464 0.347861Z" fill="#E59819"/>
<path d="M397.464 0.347861L396.243 2.93348L393.512 3.34944C393.022 3.42365 392.826 4.05443 393.181 4.41572L395.157 6.42719L394.69 9.26863C394.606 9.78224 395.123 10.167 395.557 9.92675L398 8.58512L400.443 9.92675C400.877 10.165 401.394 9.78224 401.31 9.26863L400.843 6.42719L402.819 4.41572C403.174 4.05443 402.978 3.42365 402.488 3.34944L399.757 2.93348L398.536 0.347861C398.318 -0.11302 397.684 -0.118878 397.464 0.347861Z" fill="#E59819"/>
<path d="M414.464 0.347861L413.243 2.93348L410.512 3.34944C410.022 3.42365 409.826 4.05443 410.181 4.41572L412.157 6.42719L411.69 9.26863C411.606 9.78224 412.123 10.167 412.557 9.92675L415 8.58512L417.443 9.92675C417.877 10.165 418.394 9.78224 418.31 9.26863L417.843 6.42719L419.819 4.41572C420.174 4.05443 419.978 3.42365 419.488 3.34944L416.757 2.93348L415.536 0.347861C415.318 -0.11302 414.684 -0.118878 414.464 0.347861Z" fill="#E59819"/>
<path d="M431.464 0.347861L430.243 2.93348L427.512 3.34944C427.022 3.42365 426.826 4.05443 427.181 4.41572L429.157 6.42719L428.69 9.26863C428.606 9.78224 429.123 10.167 429.557 9.92675L432 8.58512L434.443 9.92675C434.877 10.165 435.394 9.78224 435.31 9.26863L434.843 6.42719L436.819 4.41572C437.174 4.05443 436.978 3.42365 436.488 3.34944L433.757 2.93348L432.536 0.347861C432.318 -0.11302 431.684 -0.118878 431.464 0.347861Z" fill="#E59819"/>
</svg>
