<svg width="86" height="18" viewBox="0 0 86 18" fill="none" xmlns="http://www.w3.org/2000/svg">
<g clip-path="url(#clip0_402_4893)">
<path d="M8.12482 1.37138C8.27031 1.02159 8.76582 1.02159 8.91131 1.37138L10.6712 5.60271C10.7326 5.75017 10.8712 5.85093 11.0304 5.86369L15.5985 6.22991C15.9761 6.26019 16.1293 6.73145 15.8415 6.97791L12.3612 9.95924C12.2399 10.0631 12.1869 10.2262 12.2239 10.3815L13.2873 14.8392C13.3752 15.2077 12.9743 15.4989 12.651 15.3015L8.74007 12.9127C8.60377 12.8294 8.43236 12.8294 8.29606 12.9127L4.38515 15.3015C4.06185 15.4989 3.66097 15.2077 3.74887 14.8392L4.81218 10.3815C4.84924 10.2262 4.79627 10.0631 4.67498 9.95924L1.19458 6.97791C0.906871 6.73145 1.05999 6.26019 1.43762 6.22991L6.0057 5.86369C6.1649 5.85093 6.30358 5.75017 6.36491 5.60271L8.12482 1.37138Z" fill="#F2F4F7"/>
<g clip-path="url(#clip1_402_4893)">
<path d="M8.12482 1.37138C8.27031 1.02159 8.76582 1.02159 8.91131 1.37138L10.6712 5.60271C10.7326 5.75017 10.8712 5.85093 11.0304 5.86369L15.5985 6.22991C15.9761 6.26019 16.1293 6.73145 15.8415 6.97791L12.3612 9.95924C12.2399 10.0631 12.1869 10.2262 12.2239 10.3815L13.2873 14.8392C13.3752 15.2077 12.9743 15.4989 12.651 15.3015L8.74007 12.9127C8.60377 12.8294 8.43236 12.8294 8.29606 12.9127L4.38515 15.3015C4.06185 15.4989 3.66097 15.2077 3.74887 14.8392L4.81218 10.3815C4.84924 10.2262 4.79627 10.0631 4.67498 9.95924L1.19458 6.97791C0.906871 6.73145 1.05999 6.26019 1.43762 6.22991L6.0057 5.86369C6.1649 5.85093 6.30358 5.75017 6.36491 5.60271L8.12482 1.37138Z" fill="#FDB022"/>
</g>
</g>
<g clip-path="url(#clip2_402_4893)">
<path d="M25.161 1.37138C25.3064 1.02159 25.802 1.02159 25.9474 1.37138L27.7074 5.60271C27.7687 5.75017 27.9074 5.85093 28.0666 5.86369L32.6346 6.22991C33.0123 6.26019 33.1654 6.73145 32.8777 6.97791L29.3973 9.95924C29.276 10.0631 29.223 10.2262 29.2601 10.3815L30.3234 14.8392C30.4113 15.2077 30.0104 15.4989 29.6871 15.3015L25.7762 12.9127C25.6399 12.8294 25.4685 12.8294 25.3322 12.9127L21.4213 15.3015C21.098 15.4989 20.6971 15.2077 20.785 14.8392L21.8483 10.3815C21.8854 10.2262 21.8324 10.0631 21.7111 9.95924L18.2307 6.97791C17.943 6.73145 18.0961 6.26019 18.4738 6.22991L23.0418 5.86369C23.201 5.85093 23.3397 5.75017 23.401 5.60271L25.161 1.37138Z" fill="#F2F4F7"/>
<g clip-path="url(#clip3_402_4893)">
<path d="M25.161 1.37138C25.3064 1.02159 25.802 1.02159 25.9474 1.37138L27.7074 5.60271C27.7687 5.75017 27.9074 5.85093 28.0666 5.86369L32.6346 6.22991C33.0123 6.26019 33.1654 6.73145 32.8777 6.97791L29.3973 9.95924C29.276 10.0631 29.223 10.2262 29.2601 10.3815L30.3234 14.8392C30.4113 15.2077 30.0104 15.4989 29.6871 15.3015L25.7762 12.9127C25.6399 12.8294 25.4685 12.8294 25.3322 12.9127L21.4213 15.3015C21.098 15.4989 20.6971 15.2077 20.785 14.8392L21.8483 10.3815C21.8854 10.2262 21.8324 10.0631 21.7111 9.95924L18.2307 6.97791C17.943 6.73145 18.0961 6.26019 18.4738 6.22991L23.0418 5.86369C23.201 5.85093 23.3397 5.75017 23.401 5.60271L25.161 1.37138Z" fill="#FDB022"/>
</g>
</g>
<g clip-path="url(#clip4_402_4893)">
<path d="M42.1971 1.37138C42.3426 1.02159 42.8381 1.02159 42.9836 1.37138L44.7435 5.60271C44.8048 5.75017 44.9435 5.85093 45.1027 5.86369L49.6708 6.22991C50.0484 6.26019 50.2015 6.73145 49.9138 6.97791L46.4334 9.95924C46.3121 10.0631 46.2592 10.2262 46.2962 10.3815L47.3595 14.8392C47.4474 15.2077 47.0465 15.4989 46.7232 15.3015L42.8123 12.9127C42.676 12.8294 42.5046 12.8294 42.3683 12.9127L38.4574 15.3015C38.1341 15.4989 37.7332 15.2077 37.8211 14.8392L38.8844 10.3815C38.9215 10.2262 38.8685 10.0631 38.7472 9.95924L35.2668 6.97791C34.9791 6.73145 35.1323 6.26019 35.5099 6.22991L40.078 5.86369C40.2372 5.85093 40.3758 5.75017 40.4372 5.60271L42.1971 1.37138Z" fill="#F2F4F7"/>
<g clip-path="url(#clip5_402_4893)">
<path d="M42.1971 1.37138C42.3426 1.02159 42.8381 1.02159 42.9836 1.37138L44.7435 5.60271C44.8048 5.75017 44.9435 5.85093 45.1027 5.86369L49.6708 6.22991C50.0484 6.26019 50.2015 6.73145 49.9138 6.97791L46.4334 9.95924C46.3121 10.0631 46.2592 10.2262 46.2962 10.3815L47.3595 14.8392C47.4474 15.2077 47.0465 15.4989 46.7232 15.3015L42.8123 12.9127C42.676 12.8294 42.5046 12.8294 42.3683 12.9127L38.4574 15.3015C38.1341 15.4989 37.7332 15.2077 37.8211 14.8392L38.8844 10.3815C38.9215 10.2262 38.8685 10.0631 38.7472 9.95924L35.2668 6.97791C34.9791 6.73145 35.1323 6.26019 35.5099 6.22991L40.078 5.86369C40.2372 5.85093 40.3758 5.75017 40.4372 5.60271L42.1971 1.37138Z" fill="#FDB022"/>
</g>
</g>
<g clip-path="url(#clip6_402_4893)">
<path d="M59.2332 1.37138C59.3787 1.02159 59.8742 1.02159 60.0197 1.37138L61.7796 5.60271C61.841 5.75017 61.9796 5.85093 62.1388 5.86369L66.7069 6.22991C67.0845 6.26019 67.2377 6.73145 66.9499 6.97791L63.4696 9.95924C63.3483 10.0631 63.2953 10.2262 63.3323 10.3815L64.3957 14.8392C64.4836 15.2077 64.0827 15.4989 63.7594 15.3015L59.8485 12.9127C59.7122 12.8294 59.5408 12.8294 59.4045 12.9127L55.4935 15.3015C55.1702 15.4989 54.7694 15.2077 54.8573 14.8392L55.9206 10.3815C55.9576 10.2262 55.9047 10.0631 55.7834 9.95924L52.303 6.97791C52.0153 6.73145 52.1684 6.26019 52.546 6.22991L57.1141 5.86369C57.2733 5.85093 57.412 5.75017 57.4733 5.60271L59.2332 1.37138Z" fill="#F2F4F7"/>
<g clip-path="url(#clip7_402_4893)">
<path d="M59.2332 1.37138C59.3787 1.02159 59.8742 1.02159 60.0197 1.37138L61.7796 5.60271C61.841 5.75017 61.9796 5.85093 62.1388 5.86369L66.7069 6.22991C67.0845 6.26019 67.2377 6.73145 66.9499 6.97791L63.4696 9.95924C63.3483 10.0631 63.2953 10.2262 63.3323 10.3815L64.3957 14.8392C64.4836 15.2077 64.0827 15.4989 63.7594 15.3015L59.8485 12.9127C59.7122 12.8294 59.5408 12.8294 59.4045 12.9127L55.4935 15.3015C55.1702 15.4989 54.7694 15.2077 54.8573 14.8392L55.9206 10.3815C55.9576 10.2262 55.9047 10.0631 55.7834 9.95924L52.303 6.97791C52.0153 6.73145 52.1684 6.26019 52.546 6.22991L57.1141 5.86369C57.2733 5.85093 57.412 5.75017 57.4733 5.60271L59.2332 1.37138Z" fill="#FDB022"/>
</g>
</g>
<g clip-path="url(#clip8_402_4893)">
<path d="M76.2694 1.37138C76.4148 1.02159 76.9104 1.02159 77.0558 1.37138L78.8158 5.60271C78.8771 5.75017 79.0158 5.85093 79.175 5.86369L83.743 6.22991C84.1207 6.26019 84.2738 6.73145 83.9861 6.97791L80.5057 9.95924C80.3844 10.0631 80.3314 10.2262 80.3685 10.3815L81.4318 14.8392C81.5197 15.2077 81.1188 15.4989 80.7955 15.3015L76.8846 12.9127C76.7483 12.8294 76.5769 12.8294 76.4406 12.9127L72.5297 15.3015C72.2064 15.4989 71.8055 15.2077 71.8934 14.8392L72.9567 10.3815C72.9938 10.2262 72.9408 10.0631 72.8195 9.95924L69.3391 6.97791C69.0514 6.73145 69.2045 6.26019 69.5822 6.22991L74.1502 5.86369C74.3094 5.85093 74.4481 5.75017 74.5094 5.60271L76.2694 1.37138Z" fill="#F2F4F7"/>
<g clip-path="url(#clip9_402_4893)">
<path d="M76.2694 1.37138C76.4148 1.02159 76.9104 1.02159 77.0558 1.37138L78.8158 5.60271C78.8771 5.75017 79.0158 5.85093 79.175 5.86369L83.743 6.22991C84.1207 6.26019 84.2738 6.73145 83.9861 6.97791L80.5057 9.95924C80.3844 10.0631 80.3314 10.2262 80.3685 10.3815L81.4318 14.8392C81.5197 15.2077 81.1188 15.4989 80.7955 15.3015L76.8846 12.9127C76.7483 12.8294 76.5769 12.8294 76.4406 12.9127L72.5297 15.3015C72.2064 15.4989 71.8055 15.2077 71.8934 14.8392L72.9567 10.3815C72.9938 10.2262 72.9408 10.0631 72.8195 9.95924L69.3391 6.97791C69.0514 6.73145 69.2045 6.26019 69.5822 6.22991L74.1502 5.86369C74.3094 5.85093 74.4481 5.75017 74.5094 5.60271L76.2694 1.37138Z" fill="#FDB022"/>
</g>
</g>
<defs>
<clipPath id="clip0_402_4893">
<rect width="17.0361" height="17.0361" fill="white"/>
</clipPath>
<clipPath id="clip1_402_4893">
<rect width="17.0361" height="17.0361" fill="white"/>
</clipPath>
<clipPath id="clip2_402_4893">
<rect width="17.0361" height="17.0361" fill="white" transform="translate(17.0361)"/>
</clipPath>
<clipPath id="clip3_402_4893">
<rect width="17.0361" height="17.0361" fill="white" transform="translate(17.0361)"/>
</clipPath>
<clipPath id="clip4_402_4893">
<rect width="17.0361" height="17.0361" fill="white" transform="translate(34.0723)"/>
</clipPath>
<clipPath id="clip5_402_4893">
<rect width="17.0361" height="17.0361" fill="white" transform="translate(34.0723)"/>
</clipPath>
<clipPath id="clip6_402_4893">
<rect width="17.0361" height="17.0361" fill="white" transform="translate(51.1084)"/>
</clipPath>
<clipPath id="clip7_402_4893">
<rect width="17.0361" height="17.0361" fill="white" transform="translate(51.1084)"/>
</clipPath>
<clipPath id="clip8_402_4893">
<rect width="17.0361" height="17.0361" fill="white" transform="translate(68.1445)"/>
</clipPath>
<clipPath id="clip9_402_4893">
<rect width="8.51807" height="17.0361" fill="white" transform="translate(68.1445)"/>
</clipPath>
</defs>
</svg>
