<svg width="52" height="52" viewBox="0 0 52 52" fill="none" xmlns="http://www.w3.org/2000/svg">
<circle cx="25.5666" cy="25.5666" r="25.5666" fill="#164C96"/>
<path d="M16.3279 31.5668H14.4643L18.6518 19.9304H20.6802L24.8677 31.5668H23.004L19.7143 22.044H19.6233L16.3279 31.5668ZM16.6404 27.01H22.6858V28.4872H16.6404V27.01ZM27.531 31.6747C27.2204 31.6747 26.9534 31.5649 26.7299 31.3452C26.5064 31.1217 26.3947 30.8528 26.3947 30.5384C26.3947 30.2278 26.5064 29.9626 26.7299 29.7429C26.9534 29.5194 27.2204 29.4077 27.531 29.4077C27.8416 29.4077 28.1087 29.5194 28.3322 29.7429C28.5556 29.9626 28.6674 30.2278 28.6674 30.5384C28.6674 30.7467 28.6144 30.938 28.5083 31.1122C28.406 31.2827 28.2697 31.419 28.0992 31.5213C27.9287 31.6236 27.7394 31.6747 27.531 31.6747ZM29.9586 21.4418V19.9304H38.9643V21.4418H35.3336V31.5668H33.5836V21.4418H29.9586Z" fill="white"/>
</svg>
