<svg width="110" height="14" viewBox="0 0 110 14" fill="none" xmlns="http://www.w3.org/2000/svg">
<path d="M6.24897 0.487005L4.54019 4.10687L0.717021 4.68922C0.0314143 4.79311 -0.243352 5.67621 0.253844 6.182L3.01982 8.99806L2.36562 12.9761C2.24786 13.6951 2.97272 14.2337 3.57982 13.8975L7 12.0192L10.4202 13.8975C11.0273 14.231 11.7521 13.6951 11.6344 12.9761L10.9802 8.99806L13.7462 6.182C14.2434 5.67621 13.9686 4.79311 13.283 4.68922L9.45981 4.10687L7.75103 0.487005C7.44486 -0.158228 6.55776 -0.16643 6.24897 0.487005Z" fill="#E59819"/>
<path d="M30.249 0.487005L28.5402 4.10687L24.717 4.68922C24.0314 4.79311 23.7566 5.67621 24.2538 6.182L27.0198 8.99806L26.3656 12.9761C26.2479 13.6951 26.9727 14.2337 27.5798 13.8975L31 12.0192L34.4202 13.8975C35.0273 14.231 35.7521 13.6951 35.6344 12.9761L34.9802 8.99806L37.7462 6.182C38.2434 5.67621 37.9686 4.79311 37.283 4.68922L33.4598 4.10687L31.751 0.487005C31.4449 -0.158228 30.5578 -0.16643 30.249 0.487005Z" fill="#E59819"/>
<path d="M54.249 0.487005L52.5402 4.10687L48.717 4.68922C48.0314 4.79311 47.7566 5.67621 48.2538 6.182L51.0198 8.99806L50.3656 12.9761C50.2479 13.6951 50.9727 14.2337 51.5798 13.8975L55 12.0192L58.4202 13.8975C59.0273 14.231 59.7521 13.6951 59.6344 12.9761L58.9802 8.99806L61.7462 6.182C62.2434 5.67621 61.9686 4.79311 61.283 4.68922L57.4598 4.10687L55.751 0.487005C55.4449 -0.158228 54.5578 -0.16643 54.249 0.487005Z" fill="#E59819"/>
<path d="M78.249 0.487005L76.5402 4.10687L72.717 4.68922C72.0314 4.79311 71.7566 5.67621 72.2538 6.182L75.0198 8.99806L74.3656 12.9761C74.2479 13.6951 74.9727 14.2337 75.5798 13.8975L79 12.0192L82.4202 13.8975C83.0273 14.231 83.7521 13.6951 83.6344 12.9761L82.9802 8.99806L85.7462 6.182C86.2434 5.67621 85.9686 4.79311 85.283 4.68922L81.4598 4.10687L79.751 0.487005C79.4449 -0.158228 78.5578 -0.16643 78.249 0.487005Z" fill="#E59819"/>
<path d="M102.249 0.487005L100.54 4.10687L96.717 4.68922C96.0314 4.79311 95.7566 5.67621 96.2538 6.182L99.0198 8.99806L98.3656 12.9761C98.2479 13.6951 98.9727 14.2337 99.5798 13.8975L103 12.0192L106.42 13.8975C107.027 14.231 107.752 13.6951 107.634 12.9761L106.98 8.99806L109.746 6.182C110.243 5.67621 109.969 4.79311 109.283 4.68922L105.46 4.10687L103.751 0.487005C103.445 -0.158228 102.558 -0.16643 102.249 0.487005Z" fill="#E59819"/>
</svg>
